<?xml version="1.0" encoding="UTF-8" standalone="no"?>
<!DOCTYPE svg PUBLIC "-//W3C//DTD SVG 1.1//EN"
 "http://www.w3.org/Graphics/SVG/1.1/DTD/svg11.dtd">
<!-- Generated by graphviz version 2.38.0 (20140413.2041)
 -->
<!-- Title: snakemake_dag Pages: 1 -->
<svg width="512pt" height="337pt"
 viewBox="0.00 0.00 511.80 337.00" xmlns="http://www.w3.org/2000/svg" xmlns:xlink="http://www.w3.org/1999/xlink">
<g id="graph0" class="graph" transform="scale(1 1) rotate(0) translate(4 333)">
<title>snakemake_dag</title>
<polygon fill="white" stroke="none" points="-4,4 -4,-333 507.802,-333 507.802,4 -4,4"/>
<!-- 0 -->
<g id="node1" class="node"><title>0</title>
<path fill="none" stroke="#56c1d8" stroke-width="2" d="M238.802,-36C238.802,-36 198.802,-36 198.802,-36 192.802,-36 186.802,-30 186.802,-24 186.802,-24 186.802,-12 186.802,-12 186.802,-6 192.802,-0 198.802,-0 198.802,-0 238.802,-0 238.802,-0 244.802,-0 250.802,-6 250.802,-12 250.802,-12 250.802,-24 250.802,-24 250.802,-30 244.802,-36 238.802,-36"/>
<text text-anchor="middle" x="218.802" y="-15.5" font-family="sans" font-size="10.00">run_hicnv</text>
</g>
<!-- 1 -->
<g id="node2" class="node"><title>1</title>
<path fill="none" stroke="#d87556" stroke-width="2" stroke-dasharray="5,2" d="M214.802,-180C214.802,-180 134.802,-180 134.802,-180 128.802,-180 122.802,-174 122.802,-168 122.802,-168 122.802,-156 122.802,-156 122.802,-150 128.802,-144 134.802,-144 134.802,-144 214.802,-144 214.802,-144 220.802,-144 226.802,-150 226.802,-156 226.802,-156 226.802,-168 226.802,-168 226.802,-174 220.802,-180 214.802,-180"/>
<text text-anchor="middle" x="174.802" y="-165" font-family="sans" font-size="10.00">process_refeature</text>
<text text-anchor="middle" x="174.802" y="-154" font-family="sans" font-size="10.00">re: hindiii</text>
</g>
<!-- 1&#45;&gt;0 -->
<g id="edge1" class="edge"><title>1&#45;&gt;0</title>
<path fill="none" stroke="grey" stroke-width="2" d="M177.241,-143.958C180.115,-125.81 185.565,-96.4007 193.802,-72 196.795,-63.1318 200.866,-53.7927 204.853,-45.4664"/>
<polygon fill="grey" stroke="grey" stroke-width="2" points="208.118,-46.7601 209.425,-36.2462 201.847,-43.6501 208.118,-46.7601"/>
</g>
<!-- 2 -->
<g id="node3" class="node"><title>2</title>
<path fill="none" stroke="#567bd8" stroke-width="2" stroke-dasharray="5,2" d="M312.802,-108C312.802,-108 214.802,-108 214.802,-108 208.802,-108 202.802,-102 202.802,-96 202.802,-96 202.802,-84 202.802,-84 202.802,-78 208.802,-72 214.802,-72 214.802,-72 312.802,-72 312.802,-72 318.802,-72 324.802,-78 324.802,-84 324.802,-84 324.802,-96 324.802,-96 324.802,-102 318.802,-108 312.802,-108"/>
<text text-anchor="middle" x="263.802" y="-87.5" font-family="sans" font-size="10.00">make_perREfragStats</text>
</g>
<!-- 1&#45;&gt;2 -->
<g id="edge8" class="edge"><title>1&#45;&gt;2</title>
<path fill="none" stroke="grey" stroke-width="2" d="M196.802,-143.697C208.01,-134.881 221.804,-124.032 233.956,-114.474"/>
<polygon fill="grey" stroke="grey" stroke-width="2" points="236.358,-117.038 242.055,-108.104 232.031,-111.535 236.358,-117.038"/>
</g>
<!-- 2&#45;&gt;0 -->
<g id="edge2" class="edge"><title>2&#45;&gt;0</title>
<path fill="none" stroke="grey" stroke-width="2" d="M252.678,-71.6966C247.447,-63.5589 241.102,-53.689 235.324,-44.7013"/>
<polygon fill="grey" stroke="grey" stroke-width="2" points="238.149,-42.6235 229.797,-36.1043 232.261,-46.4088 238.149,-42.6235"/>
</g>
<!-- 3 -->
<g id="node4" class="node"><title>3</title>
<path fill="none" stroke="#56d88a" stroke-width="2" stroke-dasharray="5,2" d="M173.302,-329C173.302,-329 78.3016,-329 78.3016,-329 72.3016,-329 66.3016,-323 66.3016,-317 66.3016,-317 66.3016,-305 66.3016,-305 66.3016,-299 72.3016,-293 78.3016,-293 78.3016,-293 173.302,-293 173.302,-293 179.302,-293 185.302,-299 185.302,-305 185.302,-305 185.302,-317 185.302,-317 185.302,-323 179.302,-329 173.302,-329"/>
<text text-anchor="middle" x="125.802" y="-308.5" font-family="sans" font-size="10.00">download_hg38_files</text>
</g>
<!-- 3&#45;&gt;1 -->
<g id="edge3" class="edge"><title>3&#45;&gt;1</title>
<path fill="none" stroke="grey" stroke-width="2" d="M66.298,-297.757C44.0385,-289.977 20.9782,-277.363 7.80162,-257 -2.09792,-241.701 -2.95955,-230.705 7.80162,-216 31.6103,-183.465 75.5295,-170.412 112.354,-165.39"/>
<polygon fill="grey" stroke="grey" stroke-width="2" points="113.014,-168.836 122.529,-164.176 112.185,-161.885 113.014,-168.836"/>
</g>
<!-- 4 -->
<g id="node5" class="node"><title>4</title>
<path fill="none" stroke="#d89c56" stroke-width="2" stroke-dasharray="5,2" d="M323.302,-254.5C323.302,-254.5 204.302,-254.5 204.302,-254.5 198.302,-254.5 192.302,-248.5 192.302,-242.5 192.302,-242.5 192.302,-230.5 192.302,-230.5 192.302,-224.5 198.302,-218.5 204.302,-218.5 204.302,-218.5 323.302,-218.5 323.302,-218.5 329.302,-218.5 335.302,-224.5 335.302,-230.5 335.302,-230.5 335.302,-242.5 335.302,-242.5 335.302,-248.5 329.302,-254.5 323.302,-254.5"/>
<text text-anchor="middle" x="263.802" y="-234" font-family="sans" font-size="10.00">digest_reference_genome</text>
</g>
<!-- 3&#45;&gt;4 -->
<g id="edge9" class="edge"><title>3&#45;&gt;4</title>
<path fill="none" stroke="grey" stroke-width="2" d="M158.506,-292.819C177.582,-282.796 201.834,-270.056 222.253,-259.328"/>
<polygon fill="grey" stroke="grey" stroke-width="2" points="224.107,-262.307 231.332,-254.558 220.852,-256.111 224.107,-262.307"/>
</g>
<!-- 4&#45;&gt;1 -->
<g id="edge4" class="edge"><title>4&#45;&gt;1</title>
<path fill="none" stroke="grey" stroke-width="2" d="M242.71,-218.319C231.072,-208.838 216.448,-196.925 203.754,-186.585"/>
<polygon fill="grey" stroke="grey" stroke-width="2" points="205.706,-183.66 195.742,-180.058 201.285,-189.088 205.706,-183.66"/>
</g>
<!-- 4&#45;&gt;2 -->
<g id="edge7" class="edge"><title>4&#45;&gt;2</title>
<path fill="none" stroke="grey" stroke-width="2" d="M263.802,-218.357C263.802,-193.588 263.802,-147.546 263.802,-118.135"/>
<polygon fill="grey" stroke="grey" stroke-width="2" points="267.302,-118.121 263.802,-108.121 260.302,-118.121 267.302,-118.121"/>
</g>
<!-- 5 -->
<g id="node6" class="node"><title>5</title>
<path fill="none" stroke="#56d8d0" stroke-width="2" stroke-dasharray="5,2" d="M162.302,-254.5C162.302,-254.5 29.3016,-254.5 29.3016,-254.5 23.3016,-254.5 17.3016,-248.5 17.3016,-242.5 17.3016,-242.5 17.3016,-230.5 17.3016,-230.5 17.3016,-224.5 23.3016,-218.5 29.3016,-218.5 29.3016,-218.5 162.302,-218.5 162.302,-218.5 168.302,-218.5 174.302,-224.5 174.302,-230.5 174.302,-230.5 174.302,-242.5 174.302,-242.5 174.302,-248.5 168.302,-254.5 162.302,-254.5"/>
<text text-anchor="middle" x="95.8016" y="-234" font-family="sans" font-size="10.00">download_hg38_mappability</text>
</g>
<!-- 5&#45;&gt;1 -->
<g id="edge5" class="edge"><title>5&#45;&gt;1</title>
<path fill="none" stroke="grey" stroke-width="2" d="M114.524,-218.319C124.756,-208.928 137.588,-197.152 148.78,-186.881"/>
<polygon fill="grey" stroke="grey" stroke-width="2" points="151.213,-189.398 156.214,-180.058 146.48,-184.241 151.213,-189.398"/>
</g>
<!-- 6 -->
<g id="node7" class="node"><title>6</title>
<path fill="none" stroke="#569ad8" stroke-width="2" stroke-dasharray="5,2" d="M424.802,-180C424.802,-180 346.802,-180 346.802,-180 340.802,-180 334.802,-174 334.802,-168 334.802,-168 334.802,-156 334.802,-156 334.802,-150 340.802,-144 346.802,-144 346.802,-144 424.802,-144 424.802,-144 430.802,-144 436.802,-150 436.802,-156 436.802,-156 436.802,-168 436.802,-168 436.802,-174 430.802,-180 424.802,-180"/>
<text text-anchor="middle" x="385.802" y="-159.5" font-family="sans" font-size="10.00">hicpro_align_only</text>
</g>
<!-- 6&#45;&gt;2 -->
<g id="edge6" class="edge"><title>6&#45;&gt;2</title>
<path fill="none" stroke="grey" stroke-width="2" d="M355.957,-143.876C339.858,-134.639 319.801,-123.131 302.513,-113.212"/>
<polygon fill="grey" stroke="grey" stroke-width="2" points="304.176,-110.131 293.761,-108.19 300.693,-116.202 304.176,-110.131"/>
</g>
<!-- 7 -->
<g id="node8" class="node"><title>7</title>
<path fill="none" stroke="#56d86b" stroke-width="2" stroke-dasharray="5,2" d="M491.802,-257C491.802,-257 365.802,-257 365.802,-257 359.802,-257 353.802,-251 353.802,-245 353.802,-245 353.802,-228 353.802,-228 353.802,-222 359.802,-216 365.802,-216 365.802,-216 491.802,-216 491.802,-216 497.802,-216 503.802,-222 503.802,-228 503.802,-228 503.802,-245 503.802,-245 503.802,-251 497.802,-257 491.802,-257"/>
<text text-anchor="middle" x="428.802" y="-245" font-family="sans" font-size="10.00">download_paired_fastq_sra</text>
<text text-anchor="middle" x="428.802" y="-234" font-family="sans" font-size="10.00">cline: test</text>
<text text-anchor="middle" x="428.802" y="-223" font-family="sans" font-size="10.00">srr: SRR40026400</text>
</g>
<!-- 7&#45;&gt;6 -->
<g id="edge10" class="edge"><title>7&#45;&gt;6</title>
<path fill="none" stroke="grey" stroke-width="2" d="M417.052,-215.689C412.179,-207.474 406.46,-197.83 401.255,-189.055"/>
<polygon fill="grey" stroke="grey" stroke-width="2" points="404.186,-187.135 396.074,-180.319 398.165,-190.706 404.186,-187.135"/>
</g>
</g>
</svg>
