<?xml version="1.0" encoding="UTF-8" standalone="no"?>
<!DOCTYPE svg PUBLIC "-//W3C//DTD SVG 1.1//EN"
 "http://www.w3.org/Graphics/SVG/1.1/DTD/svg11.dtd">
<!-- Generated by graphviz version 2.38.0 (20140413.2041)
 -->
<!-- Title: snakemake_dag Pages: 1 -->
<svg width="918pt" height="409pt"
 viewBox="0.00 0.00 917.94 409.00" xmlns="http://www.w3.org/2000/svg" xmlns:xlink="http://www.w3.org/1999/xlink">
<g id="graph0" class="graph" transform="scale(1 1) rotate(0) translate(4 405)">
<title>snakemake_dag</title>
<polygon fill="white" stroke="none" points="-4,4 -4,-405 913.935,-405 913.935,4 -4,4"/>
<!-- 0 -->
<g id="node1" class="node"><title>0</title>
<path fill="none" stroke="#d85656" stroke-width="2" d="M208.935,-36C208.935,-36 168.935,-36 168.935,-36 162.935,-36 156.935,-30 156.935,-24 156.935,-24 156.935,-12 156.935,-12 156.935,-6 162.935,-0 168.935,-0 168.935,-0 208.935,-0 208.935,-0 214.935,-0 220.935,-6 220.935,-12 220.935,-12 220.935,-24 220.935,-24 220.935,-30 214.935,-36 208.935,-36"/>
<text text-anchor="middle" x="188.935" y="-15.5" font-family="sans" font-size="10.00">run_hicnv</text>
</g>
<!-- 1 -->
<g id="node2" class="node"><title>1</title>
<path fill="none" stroke="#56d8c1" stroke-width="2" stroke-dasharray="5,2" d="M160.935,-108C160.935,-108 20.9352,-108 20.9352,-108 14.9352,-108 8.93521,-102 8.93521,-96 8.93521,-96 8.93521,-84 8.93521,-84 8.93521,-78 14.9352,-72 20.9352,-72 20.9352,-72 160.935,-72 160.935,-72 166.935,-72 172.935,-78 172.935,-84 172.935,-84 172.935,-96 172.935,-96 172.935,-102 166.935,-108 160.935,-108"/>
<text text-anchor="middle" x="90.9352" y="-87.5" font-family="sans" font-size="10.00">filter_refeature_for_main_chrs</text>
</g>
<!-- 1&#45;&gt;0 -->
<g id="edge1" class="edge"><title>1&#45;&gt;0</title>
<path fill="none" stroke="grey" stroke-width="2" d="M114.909,-71.8761C127.485,-62.8931 143.068,-51.7625 156.687,-42.0341"/>
<polygon fill="grey" stroke="grey" stroke-width="2" points="158.767,-44.8502 164.87,-36.1898 154.698,-39.1541 158.767,-44.8502"/>
</g>
<!-- 2 -->
<g id="node3" class="node"><title>2</title>
<path fill="none" stroke="#d89556" stroke-width="2" d="M370.435,-108C370.435,-108 203.435,-108 203.435,-108 197.435,-108 191.435,-102 191.435,-96 191.435,-96 191.435,-84 191.435,-84 191.435,-78 197.435,-72 203.435,-72 203.435,-72 370.435,-72 370.435,-72 376.435,-72 382.435,-78 382.435,-84 382.435,-84 382.435,-96 382.435,-96 382.435,-102 376.435,-108 370.435,-108"/>
<text text-anchor="middle" x="286.935" y="-87.5" font-family="sans" font-size="10.00">filter_perREfragStats_for_main_chrs</text>
</g>
<!-- 2&#45;&gt;0 -->
<g id="edge2" class="edge"><title>2&#45;&gt;0</title>
<path fill="none" stroke="grey" stroke-width="2" d="M262.962,-71.8761C250.385,-62.8931 234.803,-51.7625 221.183,-42.0341"/>
<polygon fill="grey" stroke="grey" stroke-width="2" points="223.173,-39.1541 213.001,-36.1898 219.104,-44.8502 223.173,-39.1541"/>
</g>
<!-- 3 -->
<g id="node4" class="node"><title>3</title>
<path fill="none" stroke="#68d856" stroke-width="2" stroke-dasharray="5,2" d="M135.935,-252C135.935,-252 55.9352,-252 55.9352,-252 49.9352,-252 43.9352,-246 43.9352,-240 43.9352,-240 43.9352,-228 43.9352,-228 43.9352,-222 49.9352,-216 55.9352,-216 55.9352,-216 135.935,-216 135.935,-216 141.935,-216 147.935,-222 147.935,-228 147.935,-228 147.935,-240 147.935,-240 147.935,-246 141.935,-252 135.935,-252"/>
<text text-anchor="middle" x="95.9352" y="-237" font-family="sans" font-size="10.00">process_refeature</text>
<text text-anchor="middle" x="95.9352" y="-226" font-family="sans" font-size="10.00">re: hindiii</text>
</g>
<!-- 3&#45;&gt;1 -->
<g id="edge3" class="edge"><title>3&#45;&gt;1</title>
<path fill="none" stroke="grey" stroke-width="2" d="M95.3321,-215.871C94.4799,-191.67 92.9145,-147.211 91.8998,-118.393"/>
<polygon fill="grey" stroke="grey" stroke-width="2" points="95.3903,-118.06 91.5405,-108.189 88.3946,-118.306 95.3903,-118.06"/>
</g>
<!-- 4 -->
<g id="node5" class="node"><title>4</title>
<path fill="none" stroke="#5692d8" stroke-width="2" stroke-dasharray="5,2" d="M333.935,-180C333.935,-180 235.935,-180 235.935,-180 229.935,-180 223.935,-174 223.935,-168 223.935,-168 223.935,-156 223.935,-156 223.935,-150 229.935,-144 235.935,-144 235.935,-144 333.935,-144 333.935,-144 339.935,-144 345.935,-150 345.935,-156 345.935,-156 345.935,-168 345.935,-168 345.935,-174 339.935,-180 333.935,-180"/>
<text text-anchor="middle" x="284.935" y="-159.5" font-family="sans" font-size="10.00">make_perREfragStats</text>
</g>
<!-- 3&#45;&gt;4 -->
<g id="edge10" class="edge"><title>3&#45;&gt;4</title>
<path fill="none" stroke="grey" stroke-width="2" d="M142.17,-215.876C168.467,-206.137 201.58,-193.872 229.293,-183.608"/>
<polygon fill="grey" stroke="grey" stroke-width="2" points="230.689,-186.824 238.851,-180.068 228.258,-180.259 230.689,-186.824"/>
</g>
<!-- 4&#45;&gt;2 -->
<g id="edge4" class="edge"><title>4&#45;&gt;2</title>
<path fill="none" stroke="grey" stroke-width="2" d="M285.43,-143.697C285.65,-135.983 285.915,-126.712 286.161,-118.112"/>
<polygon fill="grey" stroke="grey" stroke-width="2" points="289.659,-118.2 286.447,-108.104 282.662,-118 289.659,-118.2"/>
</g>
<!-- 5 -->
<g id="node6" class="node"><title>5</title>
<path fill="none" stroke="#d8d356" stroke-width="2" stroke-dasharray="5,2" d="M361.435,-401C361.435,-401 266.435,-401 266.435,-401 260.435,-401 254.435,-395 254.435,-389 254.435,-389 254.435,-377 254.435,-377 254.435,-371 260.435,-365 266.435,-365 266.435,-365 361.435,-365 361.435,-365 367.435,-365 373.435,-371 373.435,-377 373.435,-377 373.435,-389 373.435,-389 373.435,-395 367.435,-401 361.435,-401"/>
<text text-anchor="middle" x="313.935" y="-380.5" font-family="sans" font-size="10.00">download_hg38_files</text>
</g>
<!-- 5&#45;&gt;3 -->
<g id="edge5" class="edge"><title>5&#45;&gt;3</title>
<path fill="none" stroke="grey" stroke-width="2" d="M254.293,-380.447C174.322,-376.963 38.7918,-365.66 7.93521,-329 -3.79896,-315.059 -1.02962,-303.864 7.93521,-288 15.2781,-275.006 27.2244,-264.843 39.9796,-257.05"/>
<polygon fill="grey" stroke="grey" stroke-width="2" points="41.899,-259.986 48.8928,-252.027 38.4625,-253.887 41.899,-259.986"/>
</g>
<!-- 6 -->
<g id="node7" class="node"><title>6</title>
<path fill="none" stroke="#bed856" stroke-width="2" stroke-dasharray="5,2" d="M323.435,-326.5C323.435,-326.5 204.435,-326.5 204.435,-326.5 198.435,-326.5 192.435,-320.5 192.435,-314.5 192.435,-314.5 192.435,-302.5 192.435,-302.5 192.435,-296.5 198.435,-290.5 204.435,-290.5 204.435,-290.5 323.435,-290.5 323.435,-290.5 329.435,-290.5 335.435,-296.5 335.435,-302.5 335.435,-302.5 335.435,-314.5 335.435,-314.5 335.435,-320.5 329.435,-326.5 323.435,-326.5"/>
<text text-anchor="middle" x="263.935" y="-306" font-family="sans" font-size="10.00">digest_reference_genome</text>
</g>
<!-- 5&#45;&gt;6 -->
<g id="edge11" class="edge"><title>5&#45;&gt;6</title>
<path fill="none" stroke="grey" stroke-width="2" d="M302.086,-364.819C295.921,-355.88 288.265,-344.779 281.433,-334.872"/>
<polygon fill="grey" stroke="grey" stroke-width="2" points="284.258,-332.803 275.699,-326.558 278.496,-336.777 284.258,-332.803"/>
</g>
<!-- 8 -->
<g id="node9" class="node"><title>8</title>
<path fill="none" stroke="#9fd856" stroke-width="2" stroke-dasharray="5,2" d="M454.935,-252C454.935,-252 376.935,-252 376.935,-252 370.935,-252 364.935,-246 364.935,-240 364.935,-240 364.935,-228 364.935,-228 364.935,-222 370.935,-216 376.935,-216 376.935,-216 454.935,-216 454.935,-216 460.935,-216 466.935,-222 466.935,-228 466.935,-228 466.935,-240 466.935,-240 466.935,-246 460.935,-252 454.935,-252"/>
<text text-anchor="middle" x="415.935" y="-231.5" font-family="sans" font-size="10.00">hicpro_align_only</text>
</g>
<!-- 5&#45;&gt;8 -->
<g id="edge13" class="edge"><title>5&#45;&gt;8</title>
<path fill="none" stroke="grey" stroke-width="2" d="M325.836,-364.85C343.724,-339.069 377.652,-290.173 398.385,-260.293"/>
<polygon fill="grey" stroke="grey" stroke-width="2" points="401.285,-262.252 404.111,-252.041 395.534,-258.262 401.285,-262.252"/>
</g>
<!-- 10 -->
<g id="node11" class="node"><title>10</title>
<path fill="none" stroke="#d8b456" stroke-width="2" stroke-dasharray="5,2" d="M531.935,-326.5C531.935,-326.5 403.935,-326.5 403.935,-326.5 397.935,-326.5 391.935,-320.5 391.935,-314.5 391.935,-314.5 391.935,-302.5 391.935,-302.5 391.935,-296.5 397.935,-290.5 403.935,-290.5 403.935,-290.5 531.935,-290.5 531.935,-290.5 537.935,-290.5 543.935,-296.5 543.935,-302.5 543.935,-302.5 543.935,-314.5 543.935,-314.5 543.935,-320.5 537.935,-326.5 531.935,-326.5"/>
<text text-anchor="middle" x="467.935" y="-306" font-family="sans" font-size="10.00">bowtie2_index_ref_genome</text>
</g>
<!-- 5&#45;&gt;10 -->
<g id="edge17" class="edge"><title>5&#45;&gt;10</title>
<path fill="none" stroke="grey" stroke-width="2" d="M350.431,-364.819C372.007,-354.661 399.515,-341.711 422.49,-330.895"/>
<polygon fill="grey" stroke="grey" stroke-width="2" points="424.145,-333.984 431.701,-326.558 421.163,-327.651 424.145,-333.984"/>
</g>
<!-- 6&#45;&gt;3 -->
<g id="edge6" class="edge"><title>6&#45;&gt;3</title>
<path fill="none" stroke="grey" stroke-width="2" d="M224.122,-290.319C200.375,-280.071 170.042,-266.98 144.844,-256.107"/>
<polygon fill="grey" stroke="grey" stroke-width="2" points="146.031,-252.807 135.463,-252.058 143.258,-259.234 146.031,-252.807"/>
</g>
<!-- 6&#45;&gt;4 -->
<g id="edge9" class="edge"><title>6&#45;&gt;4</title>
<path fill="none" stroke="grey" stroke-width="2" d="M266.427,-290.357C270.026,-265.588 276.717,-219.546 280.992,-190.135"/>
<polygon fill="grey" stroke="grey" stroke-width="2" points="284.472,-190.521 282.447,-180.121 277.545,-189.514 284.472,-190.521"/>
</g>
<!-- 6&#45;&gt;8 -->
<g id="edge14" class="edge"><title>6&#45;&gt;8</title>
<path fill="none" stroke="grey" stroke-width="2" d="M299.957,-290.319C321.253,-280.161 348.403,-267.211 371.08,-256.395"/>
<polygon fill="grey" stroke="grey" stroke-width="2" points="372.653,-259.522 380.172,-252.058 369.639,-253.204 372.653,-259.522"/>
</g>
<!-- 7 -->
<g id="node8" class="node"><title>7</title>
<path fill="none" stroke="#88d856" stroke-width="2" stroke-dasharray="5,2" d="M162.435,-326.5C162.435,-326.5 29.4352,-326.5 29.4352,-326.5 23.4352,-326.5 17.4352,-320.5 17.4352,-314.5 17.4352,-314.5 17.4352,-302.5 17.4352,-302.5 17.4352,-296.5 23.4352,-290.5 29.4352,-290.5 29.4352,-290.5 162.435,-290.5 162.435,-290.5 168.435,-290.5 174.435,-296.5 174.435,-302.5 174.435,-302.5 174.435,-314.5 174.435,-314.5 174.435,-320.5 168.435,-326.5 162.435,-326.5"/>
<text text-anchor="middle" x="95.9352" y="-306" font-family="sans" font-size="10.00">download_hg38_mappability</text>
</g>
<!-- 7&#45;&gt;3 -->
<g id="edge7" class="edge"><title>7&#45;&gt;3</title>
<path fill="none" stroke="grey" stroke-width="2" d="M95.9352,-290.319C95.9352,-281.922 95.9352,-271.616 95.9352,-262.186"/>
<polygon fill="grey" stroke="grey" stroke-width="2" points="99.4353,-262.058 95.9352,-252.058 92.4353,-262.058 99.4353,-262.058"/>
</g>
<!-- 8&#45;&gt;4 -->
<g id="edge8" class="edge"><title>8&#45;&gt;4</title>
<path fill="none" stroke="grey" stroke-width="2" d="M383.889,-215.876C366.444,-206.554 344.67,-194.919 325.992,-184.939"/>
<polygon fill="grey" stroke="grey" stroke-width="2" points="327.574,-181.816 317.105,-180.19 324.275,-187.99 327.574,-181.816"/>
</g>
<!-- 9 -->
<g id="node10" class="node"><title>9</title>
<path fill="none" stroke="#56d882" stroke-width="2" stroke-dasharray="5,2" d="M699.935,-329C699.935,-329 573.935,-329 573.935,-329 567.935,-329 561.935,-323 561.935,-317 561.935,-317 561.935,-300 561.935,-300 561.935,-294 567.935,-288 573.935,-288 573.935,-288 699.935,-288 699.935,-288 705.935,-288 711.935,-294 711.935,-300 711.935,-300 711.935,-317 711.935,-317 711.935,-323 705.935,-329 699.935,-329"/>
<text text-anchor="middle" x="636.935" y="-317" font-family="sans" font-size="10.00">download_paired_fastq_sra</text>
<text text-anchor="middle" x="636.935" y="-306" font-family="sans" font-size="10.00">cline: test_copy</text>
<text text-anchor="middle" x="636.935" y="-295" font-family="sans" font-size="10.00">srr: SRR40026400</text>
</g>
<!-- 9&#45;&gt;8 -->
<g id="edge12" class="edge"><title>9&#45;&gt;8</title>
<path fill="none" stroke="grey" stroke-width="2" d="M577.421,-287.976C546.254,-277.752 508.157,-265.254 476.795,-254.965"/>
<polygon fill="grey" stroke="grey" stroke-width="2" points="477.886,-251.64 467.293,-251.848 475.704,-258.291 477.886,-251.64"/>
</g>
<!-- 10&#45;&gt;8 -->
<g id="edge15" class="edge"><title>10&#45;&gt;8</title>
<path fill="none" stroke="grey" stroke-width="2" d="M455.612,-290.319C449.201,-281.38 441.239,-270.279 434.133,-260.372"/>
<polygon fill="grey" stroke="grey" stroke-width="2" points="436.842,-258.144 428.17,-252.058 431.154,-262.224 436.842,-258.144"/>
</g>
<!-- 11 -->
<g id="node12" class="node"><title>11</title>
<path fill="none" stroke="#d87556" stroke-width="2" stroke-dasharray="5,2" d="M897.935,-326.5C897.935,-326.5 741.935,-326.5 741.935,-326.5 735.935,-326.5 729.935,-320.5 729.935,-314.5 729.935,-314.5 729.935,-302.5 729.935,-302.5 729.935,-296.5 735.935,-290.5 741.935,-290.5 741.935,-290.5 897.935,-290.5 897.935,-290.5 903.935,-290.5 909.935,-296.5 909.935,-302.5 909.935,-302.5 909.935,-314.5 909.935,-314.5 909.935,-320.5 903.935,-326.5 897.935,-326.5"/>
<text text-anchor="middle" x="819.935" y="-306" font-family="sans" font-size="10.00">download_hicpro_singularity_img</text>
</g>
<!-- 11&#45;&gt;8 -->
<g id="edge16" class="edge"><title>11&#45;&gt;8</title>
<path fill="none" stroke="grey" stroke-width="2" d="M734.102,-290.471C729.651,-289.626 725.241,-288.798 720.935,-288 636.462,-272.343 538.563,-255.575 476.941,-245.187"/>
<polygon fill="grey" stroke="grey" stroke-width="2" points="477.438,-241.722 466.995,-243.513 476.276,-248.625 477.438,-241.722"/>
</g>
</g>
</svg>
