<?xml version="1.0" encoding="UTF-8" standalone="no"?>
<!DOCTYPE svg PUBLIC "-//W3C//DTD SVG 1.1//EN"
 "http://www.w3.org/Graphics/SVG/1.1/DTD/svg11.dtd">
<!-- Generated by graphviz version 2.38.0 (20140413.2041)
 -->
<!-- Title: snakemake_dag Pages: 1 -->
<svg width="512pt" height="481pt"
 viewBox="0.00 0.00 511.80 481.00" xmlns="http://www.w3.org/2000/svg" xmlns:xlink="http://www.w3.org/1999/xlink">
<g id="graph0" class="graph" transform="scale(1 1) rotate(0) translate(4 477)">
<title>snakemake_dag</title>
<polygon fill="white" stroke="none" points="-4,4 -4,-477 507.802,-477 507.802,4 -4,4"/>
<!-- 0 -->
<g id="node1" class="node"><title>0</title>
<path fill="none" stroke="#56d87b" stroke-width="2" d="M239.802,-180C239.802,-180 199.802,-180 199.802,-180 193.802,-180 187.802,-174 187.802,-168 187.802,-168 187.802,-156 187.802,-156 187.802,-150 193.802,-144 199.802,-144 199.802,-144 239.802,-144 239.802,-144 245.802,-144 251.802,-150 251.802,-156 251.802,-156 251.802,-168 251.802,-168 251.802,-174 245.802,-180 239.802,-180"/>
<text text-anchor="middle" x="219.802" y="-159.5" font-family="sans" font-size="10.00">run_hicnv</text>
</g>
<!-- 1 -->
<g id="node2" class="node"><title>1</title>
<path fill="none" stroke="#d87d56" stroke-width="2" d="M465.302,-36C465.302,-36 366.302,-36 366.302,-36 360.302,-36 354.302,-30 354.302,-24 354.302,-24 354.302,-12 354.302,-12 354.302,-6 360.302,-0 366.302,-0 366.302,-0 465.302,-0 465.302,-0 471.302,-0 477.302,-6 477.302,-12 477.302,-12 477.302,-24 477.302,-24 477.302,-30 471.302,-36 465.302,-36"/>
<text text-anchor="middle" x="415.802" y="-15.5" font-family="sans" font-size="10.00">hicpro_ice_norm_only</text>
</g>
<!-- 2 -->
<g id="node3" class="node"><title>2</title>
<path fill="none" stroke="#56d8a2" stroke-width="2" stroke-dasharray="5,2" d="M214.802,-324C214.802,-324 134.802,-324 134.802,-324 128.802,-324 122.802,-318 122.802,-312 122.802,-312 122.802,-300 122.802,-300 122.802,-294 128.802,-288 134.802,-288 134.802,-288 214.802,-288 214.802,-288 220.802,-288 226.802,-294 226.802,-300 226.802,-300 226.802,-312 226.802,-312 226.802,-318 220.802,-324 214.802,-324"/>
<text text-anchor="middle" x="174.802" y="-309" font-family="sans" font-size="10.00">process_refeature</text>
<text text-anchor="middle" x="174.802" y="-298" font-family="sans" font-size="10.00">re: hindiii</text>
</g>
<!-- 2&#45;&gt;0 -->
<g id="edge1" class="edge"><title>2&#45;&gt;0</title>
<path fill="none" stroke="grey" stroke-width="2" d="M177.167,-287.933C179.979,-269.764 185.379,-240.337 193.802,-216 196.919,-206.993 201.203,-197.535 205.394,-189.143"/>
<polygon fill="grey" stroke="grey" stroke-width="2" points="208.533,-190.692 210.02,-180.202 202.316,-187.476 208.533,-190.692"/>
</g>
<!-- 3 -->
<g id="node4" class="node"><title>3</title>
<path fill="none" stroke="#56d8c9" stroke-width="2" d="M312.802,-252C312.802,-252 214.802,-252 214.802,-252 208.802,-252 202.802,-246 202.802,-240 202.802,-240 202.802,-228 202.802,-228 202.802,-222 208.802,-216 214.802,-216 214.802,-216 312.802,-216 312.802,-216 318.802,-216 324.802,-222 324.802,-228 324.802,-228 324.802,-240 324.802,-240 324.802,-246 318.802,-252 312.802,-252"/>
<text text-anchor="middle" x="263.802" y="-231.5" font-family="sans" font-size="10.00">make_perREfragStats</text>
</g>
<!-- 2&#45;&gt;3 -->
<g id="edge9" class="edge"><title>2&#45;&gt;3</title>
<path fill="none" stroke="grey" stroke-width="2" d="M196.802,-287.697C208.01,-278.881 221.804,-268.032 233.956,-258.474"/>
<polygon fill="grey" stroke="grey" stroke-width="2" points="236.358,-261.038 242.055,-252.104 232.031,-255.535 236.358,-261.038"/>
</g>
<!-- 3&#45;&gt;0 -->
<g id="edge2" class="edge"><title>3&#45;&gt;0</title>
<path fill="none" stroke="grey" stroke-width="2" d="M252.925,-215.697C247.81,-207.559 241.606,-197.689 235.957,-188.701"/>
<polygon fill="grey" stroke="grey" stroke-width="2" points="238.838,-186.708 230.553,-180.104 232.911,-190.433 238.838,-186.708"/>
</g>
<!-- 4 -->
<g id="node5" class="node"><title>4</title>
<path fill="none" stroke="#78d856" stroke-width="2" stroke-dasharray="5,2" d="M491.802,-108C491.802,-108 339.802,-108 339.802,-108 333.802,-108 327.802,-102 327.802,-96 327.802,-96 327.802,-84 327.802,-84 327.802,-78 333.802,-72 339.802,-72 339.802,-72 491.802,-72 491.802,-72 497.802,-72 503.802,-78 503.802,-84 503.802,-84 503.802,-96 503.802,-96 503.802,-102 497.802,-108 491.802,-108"/>
<text text-anchor="middle" x="415.802" y="-87.5" font-family="sans" font-size="10.00">hicpro_build_contact_maps_only</text>
</g>
<!-- 4&#45;&gt;1 -->
<g id="edge3" class="edge"><title>4&#45;&gt;1</title>
<path fill="none" stroke="grey" stroke-width="2" d="M415.802,-71.6966C415.802,-63.9827 415.802,-54.7125 415.802,-46.1124"/>
<polygon fill="grey" stroke="grey" stroke-width="2" points="419.302,-46.1043 415.802,-36.1043 412.302,-46.1044 419.302,-46.1043"/>
</g>
<!-- 5 -->
<g id="node6" class="node"><title>5</title>
<path fill="none" stroke="#59d856" stroke-width="2" stroke-dasharray="5,2" d="M173.302,-473C173.302,-473 78.3016,-473 78.3016,-473 72.3016,-473 66.3016,-467 66.3016,-461 66.3016,-461 66.3016,-449 66.3016,-449 66.3016,-443 72.3016,-437 78.3016,-437 78.3016,-437 173.302,-437 173.302,-437 179.302,-437 185.302,-443 185.302,-449 185.302,-449 185.302,-461 185.302,-461 185.302,-467 179.302,-473 173.302,-473"/>
<text text-anchor="middle" x="125.802" y="-452.5" font-family="sans" font-size="10.00">download_hg38_files</text>
</g>
<!-- 5&#45;&gt;2 -->
<g id="edge4" class="edge"><title>5&#45;&gt;2</title>
<path fill="none" stroke="grey" stroke-width="2" d="M66.298,-441.757C44.0385,-433.977 20.9782,-421.363 7.80162,-401 -2.09792,-385.701 -2.95955,-374.705 7.80162,-360 31.6103,-327.465 75.5295,-314.412 112.354,-309.39"/>
<polygon fill="grey" stroke="grey" stroke-width="2" points="113.014,-312.836 122.529,-308.176 112.185,-305.885 113.014,-312.836"/>
</g>
<!-- 6 -->
<g id="node7" class="node"><title>6</title>
<path fill="none" stroke="#d85656" stroke-width="2" stroke-dasharray="5,2" d="M323.302,-398.5C323.302,-398.5 204.302,-398.5 204.302,-398.5 198.302,-398.5 192.302,-392.5 192.302,-386.5 192.302,-386.5 192.302,-374.5 192.302,-374.5 192.302,-368.5 198.302,-362.5 204.302,-362.5 204.302,-362.5 323.302,-362.5 323.302,-362.5 329.302,-362.5 335.302,-368.5 335.302,-374.5 335.302,-374.5 335.302,-386.5 335.302,-386.5 335.302,-392.5 329.302,-398.5 323.302,-398.5"/>
<text text-anchor="middle" x="263.802" y="-378" font-family="sans" font-size="10.00">digest_reference_genome</text>
</g>
<!-- 5&#45;&gt;6 -->
<g id="edge11" class="edge"><title>5&#45;&gt;6</title>
<path fill="none" stroke="grey" stroke-width="2" d="M158.506,-436.819C177.582,-426.796 201.834,-414.056 222.253,-403.328"/>
<polygon fill="grey" stroke="grey" stroke-width="2" points="224.107,-406.307 231.332,-398.558 220.852,-400.111 224.107,-406.307"/>
</g>
<!-- 6&#45;&gt;2 -->
<g id="edge5" class="edge"><title>6&#45;&gt;2</title>
<path fill="none" stroke="grey" stroke-width="2" d="M242.71,-362.319C231.072,-352.838 216.448,-340.925 203.754,-330.585"/>
<polygon fill="grey" stroke="grey" stroke-width="2" points="205.706,-327.66 195.742,-324.058 201.285,-333.088 205.706,-327.66"/>
</g>
<!-- 6&#45;&gt;3 -->
<g id="edge8" class="edge"><title>6&#45;&gt;3</title>
<path fill="none" stroke="grey" stroke-width="2" d="M263.802,-362.357C263.802,-337.588 263.802,-291.546 263.802,-262.135"/>
<polygon fill="grey" stroke="grey" stroke-width="2" points="267.302,-262.121 263.802,-252.121 260.302,-262.121 267.302,-262.121"/>
</g>
<!-- 7 -->
<g id="node8" class="node"><title>7</title>
<path fill="none" stroke="#567bd8" stroke-width="2" stroke-dasharray="5,2" d="M162.302,-398.5C162.302,-398.5 29.3016,-398.5 29.3016,-398.5 23.3016,-398.5 17.3016,-392.5 17.3016,-386.5 17.3016,-386.5 17.3016,-374.5 17.3016,-374.5 17.3016,-368.5 23.3016,-362.5 29.3016,-362.5 29.3016,-362.5 162.302,-362.5 162.302,-362.5 168.302,-362.5 174.302,-368.5 174.302,-374.5 174.302,-374.5 174.302,-386.5 174.302,-386.5 174.302,-392.5 168.302,-398.5 162.302,-398.5"/>
<text text-anchor="middle" x="95.8016" y="-378" font-family="sans" font-size="10.00">download_hg38_mappability</text>
</g>
<!-- 7&#45;&gt;2 -->
<g id="edge6" class="edge"><title>7&#45;&gt;2</title>
<path fill="none" stroke="grey" stroke-width="2" d="M114.524,-362.319C124.756,-352.928 137.588,-341.152 148.78,-330.881"/>
<polygon fill="grey" stroke="grey" stroke-width="2" points="151.213,-333.398 156.214,-324.058 146.48,-328.241 151.213,-333.398"/>
</g>
<!-- 8 -->
<g id="node9" class="node"><title>8</title>
<path fill="none" stroke="#56a2d8" stroke-width="2" stroke-dasharray="5,2" d="M454.802,-324C454.802,-324 376.802,-324 376.802,-324 370.802,-324 364.802,-318 364.802,-312 364.802,-312 364.802,-300 364.802,-300 364.802,-294 370.802,-288 376.802,-288 376.802,-288 454.802,-288 454.802,-288 460.802,-288 466.802,-294 466.802,-300 466.802,-300 466.802,-312 466.802,-312 466.802,-318 460.802,-324 454.802,-324"/>
<text text-anchor="middle" x="415.802" y="-303.5" font-family="sans" font-size="10.00">hicpro_align_only</text>
</g>
<!-- 8&#45;&gt;3 -->
<g id="edge7" class="edge"><title>8&#45;&gt;3</title>
<path fill="none" stroke="grey" stroke-width="2" d="M378.618,-287.876C357.931,-278.349 331.999,-266.407 310.017,-256.283"/>
<polygon fill="grey" stroke="grey" stroke-width="2" points="311.411,-253.072 300.864,-252.068 308.483,-259.43 311.411,-253.072"/>
</g>
<!-- 11 -->
<g id="node12" class="node"><title>11</title>
<path fill="none" stroke="#56c9d8" stroke-width="2" stroke-dasharray="5,2" d="M463.302,-252C463.302,-252 368.302,-252 368.302,-252 362.302,-252 356.302,-246 356.302,-240 356.302,-240 356.302,-228 356.302,-228 356.302,-222 362.302,-216 368.302,-216 368.302,-216 463.302,-216 463.302,-216 469.302,-216 475.302,-222 475.302,-228 475.302,-228 475.302,-240 475.302,-240 475.302,-246 469.302,-252 463.302,-252"/>
<text text-anchor="middle" x="415.802" y="-231.5" font-family="sans" font-size="10.00">hicpro_hic_proc_only</text>
</g>
<!-- 8&#45;&gt;11 -->
<g id="edge14" class="edge"><title>8&#45;&gt;11</title>
<path fill="none" stroke="grey" stroke-width="2" d="M415.802,-287.697C415.802,-279.983 415.802,-270.712 415.802,-262.112"/>
<polygon fill="grey" stroke="grey" stroke-width="2" points="419.302,-262.104 415.802,-252.104 412.302,-262.104 419.302,-262.104"/>
</g>
<!-- 9 -->
<g id="node10" class="node"><title>9</title>
<path fill="none" stroke="#d8c356" stroke-width="2" stroke-dasharray="5,2" d="M487.302,-180C487.302,-180 344.302,-180 344.302,-180 338.302,-180 332.302,-174 332.302,-168 332.302,-168 332.302,-156 332.302,-156 332.302,-150 338.302,-144 344.302,-144 344.302,-144 487.302,-144 487.302,-144 493.302,-144 499.302,-150 499.302,-156 499.302,-156 499.302,-168 499.302,-168 499.302,-174 493.302,-180 487.302,-180"/>
<text text-anchor="middle" x="415.802" y="-159.5" font-family="sans" font-size="10.00">hicpro_merge_persample_only</text>
</g>
<!-- 9&#45;&gt;4 -->
<g id="edge10" class="edge"><title>9&#45;&gt;4</title>
<path fill="none" stroke="grey" stroke-width="2" d="M415.802,-143.697C415.802,-135.983 415.802,-126.712 415.802,-118.112"/>
<polygon fill="grey" stroke="grey" stroke-width="2" points="419.302,-118.104 415.802,-108.104 412.302,-118.104 419.302,-118.104"/>
</g>
<!-- 10 -->
<g id="node11" class="node"><title>10</title>
<path fill="none" stroke="#c6d856" stroke-width="2" stroke-dasharray="5,2" d="M491.802,-401C491.802,-401 365.802,-401 365.802,-401 359.802,-401 353.802,-395 353.802,-389 353.802,-389 353.802,-372 353.802,-372 353.802,-366 359.802,-360 365.802,-360 365.802,-360 491.802,-360 491.802,-360 497.802,-360 503.802,-366 503.802,-372 503.802,-372 503.802,-389 503.802,-389 503.802,-395 497.802,-401 491.802,-401"/>
<text text-anchor="middle" x="428.802" y="-389" font-family="sans" font-size="10.00">download_paired_fastq_sra</text>
<text text-anchor="middle" x="428.802" y="-378" font-family="sans" font-size="10.00">cline: test_copy</text>
<text text-anchor="middle" x="428.802" y="-367" font-family="sans" font-size="10.00">srr: SRR40026400</text>
</g>
<!-- 10&#45;&gt;8 -->
<g id="edge12" class="edge"><title>10&#45;&gt;8</title>
<path fill="none" stroke="grey" stroke-width="2" d="M425.249,-359.689C423.838,-351.82 422.192,-342.64 420.673,-334.168"/>
<polygon fill="grey" stroke="grey" stroke-width="2" points="424.117,-333.545 418.907,-324.319 417.227,-334.78 424.117,-333.545"/>
</g>
<!-- 11&#45;&gt;9 -->
<g id="edge13" class="edge"><title>11&#45;&gt;9</title>
<path fill="none" stroke="grey" stroke-width="2" d="M415.802,-215.697C415.802,-207.983 415.802,-198.712 415.802,-190.112"/>
<polygon fill="grey" stroke="grey" stroke-width="2" points="419.302,-190.104 415.802,-180.104 412.302,-190.104 419.302,-190.104"/>
</g>
</g>
</svg>
