<?xml version="1.0" encoding="UTF-8" standalone="no"?>
<!DOCTYPE svg PUBLIC "-//W3C//DTD SVG 1.1//EN"
 "http://www.w3.org/Graphics/SVG/1.1/DTD/svg11.dtd">
<!-- Generated by graphviz version 2.38.0 (20140413.2041)
 -->
<!-- Title: snakemake_dag Pages: 1 -->
<svg width="726pt" height="193pt"
 viewBox="0.00 0.00 726.00 193.00" xmlns="http://www.w3.org/2000/svg" xmlns:xlink="http://www.w3.org/1999/xlink">
<g id="graph0" class="graph" transform="scale(1 1) rotate(0) translate(4 189)">
<title>snakemake_dag</title>
<polygon fill="white" stroke="none" points="-4,4 -4,-189 722,-189 722,4 -4,4"/>
<!-- 0 -->
<g id="node1" class="node"><title>0</title>
<path fill="none" stroke="#d87556" stroke-width="2" d="M317,-36C317,-36 239,-36 239,-36 233,-36 227,-30 227,-24 227,-24 227,-12 227,-12 227,-6 233,-0 239,-0 239,-0 317,-0 317,-0 323,-0 329,-6 329,-12 329,-12 329,-24 329,-24 329,-30 323,-36 317,-36"/>
<text text-anchor="middle" x="278" y="-15.5" font-family="sans" font-size="10.00">hicpro_align_only</text>
</g>
<!-- 1 -->
<g id="node2" class="node"><title>1</title>
<path fill="none" stroke="#56d0d8" stroke-width="2" stroke-dasharray="5,2" d="M138,-113C138,-113 12,-113 12,-113 6,-113 1.42109e-14,-107 1.42109e-14,-101 1.42109e-14,-101 1.42109e-14,-84 1.42109e-14,-84 1.42109e-14,-78 6,-72 12,-72 12,-72 138,-72 138,-72 144,-72 150,-78 150,-84 150,-84 150,-101 150,-101 150,-107 144,-113 138,-113"/>
<text text-anchor="middle" x="75" y="-101" font-family="sans" font-size="10.00">download_paired_fastq_sra</text>
<text text-anchor="middle" x="75" y="-90" font-family="sans" font-size="10.00">cline: test</text>
<text text-anchor="middle" x="75" y="-79" font-family="sans" font-size="10.00">srr: SRR40026400</text>
</g>
<!-- 1&#45;&gt;0 -->
<g id="edge1" class="edge"><title>1&#45;&gt;0</title>
<path fill="none" stroke="grey" stroke-width="2" d="M129.667,-71.976C157.837,-61.9152 192.172,-49.6529 220.71,-39.4605"/>
<polygon fill="grey" stroke="grey" stroke-width="2" points="221.909,-42.749 230.149,-36.0895 219.555,-36.1568 221.909,-42.749"/>
</g>
<!-- 2 -->
<g id="node3" class="node"><title>2</title>
<path fill="none" stroke="#56b1d8" stroke-width="2" stroke-dasharray="5,2" d="M325.5,-185C325.5,-185 230.5,-185 230.5,-185 224.5,-185 218.5,-179 218.5,-173 218.5,-173 218.5,-161 218.5,-161 218.5,-155 224.5,-149 230.5,-149 230.5,-149 325.5,-149 325.5,-149 331.5,-149 337.5,-155 337.5,-161 337.5,-161 337.5,-173 337.5,-173 337.5,-179 331.5,-185 325.5,-185"/>
<text text-anchor="middle" x="278" y="-164.5" font-family="sans" font-size="10.00">download_hg38_files</text>
</g>
<!-- 2&#45;&gt;0 -->
<g id="edge2" class="edge"><title>2&#45;&gt;0</title>
<path fill="none" stroke="grey" stroke-width="2" d="M235.888,-148.874C220.816,-140.45 205.473,-128.67 197,-113 188.333,-96.971 188.333,-88.029 197,-72 203.818,-59.3909 215.085,-49.3004 227.079,-41.45"/>
<polygon fill="grey" stroke="grey" stroke-width="2" points="229.141,-44.2938 235.888,-36.1256 225.52,-38.3031 229.141,-44.2938"/>
</g>
<!-- 3 -->
<g id="node4" class="node"><title>3</title>
<path fill="none" stroke="#d89556" stroke-width="2" stroke-dasharray="5,2" d="M337.5,-110.5C337.5,-110.5 218.5,-110.5 218.5,-110.5 212.5,-110.5 206.5,-104.5 206.5,-98.5 206.5,-98.5 206.5,-86.5 206.5,-86.5 206.5,-80.5 212.5,-74.5 218.5,-74.5 218.5,-74.5 337.5,-74.5 337.5,-74.5 343.5,-74.5 349.5,-80.5 349.5,-86.5 349.5,-86.5 349.5,-98.5 349.5,-98.5 349.5,-104.5 343.5,-110.5 337.5,-110.5"/>
<text text-anchor="middle" x="278" y="-90" font-family="sans" font-size="10.00">digest_reference_genome</text>
</g>
<!-- 2&#45;&gt;3 -->
<g id="edge6" class="edge"><title>2&#45;&gt;3</title>
<path fill="none" stroke="grey" stroke-width="2" d="M278,-148.819C278,-140.422 278,-130.116 278,-120.686"/>
<polygon fill="grey" stroke="grey" stroke-width="2" points="281.5,-120.558 278,-110.558 274.5,-120.558 281.5,-120.558"/>
</g>
<!-- 4 -->
<g id="node5" class="node"><title>4</title>
<path fill="none" stroke="#bed856" stroke-width="2" stroke-dasharray="5,2" d="M508,-110.5C508,-110.5 380,-110.5 380,-110.5 374,-110.5 368,-104.5 368,-98.5 368,-98.5 368,-86.5 368,-86.5 368,-80.5 374,-74.5 380,-74.5 380,-74.5 508,-74.5 508,-74.5 514,-74.5 520,-80.5 520,-86.5 520,-86.5 520,-98.5 520,-98.5 520,-104.5 514,-110.5 508,-110.5"/>
<text text-anchor="middle" x="444" y="-90" font-family="sans" font-size="10.00">bowtie2_index_ref_genome</text>
</g>
<!-- 2&#45;&gt;4 -->
<g id="edge7" class="edge"><title>2&#45;&gt;4</title>
<path fill="none" stroke="grey" stroke-width="2" d="M317.34,-148.819C340.804,-138.571 370.776,-125.48 395.673,-114.607"/>
<polygon fill="grey" stroke="grey" stroke-width="2" points="397.179,-117.768 404.943,-110.558 394.378,-111.353 397.179,-117.768"/>
</g>
<!-- 3&#45;&gt;0 -->
<g id="edge3" class="edge"><title>3&#45;&gt;0</title>
<path fill="none" stroke="grey" stroke-width="2" d="M278,-74.3185C278,-65.9216 278,-55.6163 278,-46.1857"/>
<polygon fill="grey" stroke="grey" stroke-width="2" points="281.5,-46.0581 278,-36.0582 274.5,-46.0582 281.5,-46.0581"/>
</g>
<!-- 4&#45;&gt;0 -->
<g id="edge4" class="edge"><title>4&#45;&gt;0</title>
<path fill="none" stroke="grey" stroke-width="2" d="M404.66,-74.3185C381.196,-64.0706 351.224,-50.9804 326.327,-40.1066"/>
<polygon fill="grey" stroke="grey" stroke-width="2" points="327.622,-36.8532 317.057,-36.0582 324.821,-43.2681 327.622,-36.8532"/>
</g>
<!-- 5 -->
<g id="node6" class="node"><title>5</title>
<path fill="none" stroke="#d85656" stroke-width="2" stroke-dasharray="5,2" d="M706,-110.5C706,-110.5 550,-110.5 550,-110.5 544,-110.5 538,-104.5 538,-98.5 538,-98.5 538,-86.5 538,-86.5 538,-80.5 544,-74.5 550,-74.5 550,-74.5 706,-74.5 706,-74.5 712,-74.5 718,-80.5 718,-86.5 718,-86.5 718,-98.5 718,-98.5 718,-104.5 712,-110.5 706,-110.5"/>
<text text-anchor="middle" x="628" y="-90" font-family="sans" font-size="10.00">download_hicpro_singularity_img</text>
</g>
<!-- 5&#45;&gt;0 -->
<g id="edge5" class="edge"><title>5&#45;&gt;0</title>
<path fill="none" stroke="grey" stroke-width="2" d="M545.498,-74.4103C482.201,-61.2988 396.248,-43.4943 339.042,-31.6444"/>
<polygon fill="grey" stroke="grey" stroke-width="2" points="339.562,-28.1779 329.06,-29.5767 338.142,-35.0324 339.562,-28.1779"/>
</g>
</g>
</svg>
